<svg width="16" height="20" viewBox="0 0 16 20" fill="none" xmlns="http://www.w3.org/2000/svg">
<path fill-rule="evenodd" clip-rule="evenodd" d="M2.34315 2.34315C3.84344 0.842855 5.87827 0 8 0C10.1217 0 12.1566 0.842855 13.6569 2.34315C15.1571 3.84344 16 5.87827 16 8C16 12.418 8 20 8 20C8 20 0 12.418 0 8C0 5.87827 0.842855 3.84344 2.34315 2.34315ZM10 3C10.5523 3 11 3.44771 11 4C11 4.55229 10.5523 5 10 5C9.44771 5 9 4.55229 9 4C9 3.44771 9.44771 3 10 3ZM3 12L5.32565 6.1592C5.65037 5.34366 6.79319 5.31233 7.16211 6.10886L8.51737 9.035C8.82406 9.69718 9.76535 9.69718 10.072 9.035C10.3787 8.37282 11.32 8.37282 11.6267 9.035L13 12H3Z" fill="#E04EF6"/>
</svg>
